<svg id="Capa_1" data-name="Capa 1" xmlns="http://www.w3.org/2000/svg" viewBox="0 0 509.34 509.34"><defs><style>.cls-1{fill:#fff;}</style></defs><title>instagram</title><path class="cls-1" d="M362.72,510.67H149.28c-81.58,0-148-66.37-148-148V149.28c0-81.58,66.37-148,148-148H362.72c81.58,0,148,66.37,148,148V362.72C510.67,444.3,444.3,510.67,362.72,510.67ZM149.28,41.12A108.29,108.29,0,0,0,41.12,149.28V362.72A108.29,108.29,0,0,0,149.28,470.88H362.72A108.29,108.29,0,0,0,470.88,362.72V149.28A108.29,108.29,0,0,0,362.72,41.12H149.28Z" transform="translate(-1.33 -1.33)"/><path class="cls-1" d="M256,393.28c-75.7,0-137.28-61.58-137.28-137.28S180.3,118.72,256,118.72,393.28,180.3,393.28,256,331.7,393.28,256,393.28Zm0-234.78A97.49,97.49,0,1,0,353.49,256,97.6,97.6,0,0,0,256,158.51Z" transform="translate(-1.33 -1.33)"/><circle class="cls-1" cx="393.95" cy="115.4" r="19.9"/></svg>